<svg xmlns="http://www.w3.org/2000/svg" viewBox="-6.527 2.221 32.279 32.279" role="img" aria-label="Socket facts"><defs><linearGradient id="socket-brand-gradient" x1="0" y1="0" x2="1" y2="0"><stop offset="0%" stop-color="#ff00aa"/><stop offset="100%" stop-color="#8c50ff"/></linearGradient></defs><path data-socket-layer="shield" fill="url(#socket-brand-gradient)" d="M18.44 8.84c.46.16.76.6.76 1.1-.04 3.58.23 8.63-.38 10.88-1.04 4.5-4.42 8.4-8.8 10.1a1.2 1.2 0 0 1-.84 0C4.52 29.15.92 24.73.18 19.8c-.06-.31-.1-.67-.13-.98-.04-.2-.05-1.14-.05-5.17V9.91a1.15 1.15 0 0 1 .76-1.07c2.8-1.02 5.38-1.93 8.2-2.96l.24-.1q.38-.12.77 0l2.24.81z"/><g data-socket-layer="glyph" transform="translate(2.013 9.2) scale(0.63333)"><defs><mask id="glyph-cut-0" maskUnits="userSpaceOnUse" x="0" y="0" width="24" height="24"><rect width="24" height="24" fill="#ffffff"/><path fill="#000000" d="M9.96 9.35h.43v-.43h-.43Z"/><path fill="#000000" d="M11.46 7.47a.6.6 0 0 1 .61-.62v.43a.2.2 0 0 0-.18.19Z"/><path fill="#000000" d="M11.46 7.47v1.88h.43V7.47Z"/><path fill="#000000" d="M11.27 8.22h.87V7.8h-.87Z"/><path fill="#000000" d="M13.57 8.18v1.17H14V8.18Z"/><path fill="#000000" d="M13.79 9.57a.68.7 0 0 1 0-1.4v.44a.25.26 0 0 0 0 .52Z"/><path fill="#000000" d="M12.83 8.33a.65.52 0 0 1 .65-.52v.43a.22.1 0 0 0-.22.1Z"/><path fill="#000000" d="M13.48 8.24h.3V7.8h-.3Z"/><path fill="#000000" d="M15.39 9.4a.7.94 0 1 1 0-1.55l-.25.36a.26.5 0 1 0 0 .83Z"/><path fill="#000000" d="M16.38 7.22v2.13h.43V7.22Z"/><path fill="#000000" d="M16.16 8.2h.87v-.42h-.87Z"/><path fill="#000000" d="M18.84 8.07a.68.58 0 1 0-.64.77v-.43a.25.15 0 1 1 .23-.2Z"/><path fill="#000000" d="M18.2 8.4a.68.58 0 1 1-.64.79l.4-.15a.25.15 0 1 0 .24-.2Z"/><path fill="#000000" d="M7 11.8h10v1.7H7Zm0 3.4h10v1.7H7Zm0 3.4h6.6v1.7H7Z"/></mask></defs><g mask="url(#glyph-cut-0)"><path fill="#ffffff" fill-rule="evenodd" d="M4 6.2h16v16.2H4Z"/></g><path fill="#ffffff" fill-rule="evenodd" d="m6.2 6.4 1.2-5 3.6 5Zm11.6 0-1.2-5-3.6 5Z"/></g></svg>